<?xml version="1.0" encoding="UTF-8"?><!DOCTYPE svg PUBLIC "-//W3C//DTD SVG 1.1//EN" "http://www.w3.org/Graphics/SVG/1.1/DTD/svg11.dtd"><svg xmlns="http://www.w3.org/2000/svg" xmlns:xlink="http://www.w3.org/1999/xlink" height="499" viewBox="0 0 499 499" width="499"><svg height="112.198" viewBox="0 0 113 113" width="112.198" x="10" y="10">
<g>
	<circle style="fill:#04CC47;" cx="56.099" cy="56.1" r="56.098"/>
	<g>
		<g>
			<path style="fill:#FFFFFF;" d="M84.66,53.989c-2.056-7.024-7.104-12.998-13.415-16.617c-7.209-4.147-16.257-4.569-24.002-1.701
				c-3.918,1.567-7.457,4.018-10.365,7.071c-0.05-6.283-0.004-12.569-0.027-18.855c0.009-1.222-0.74-2.438-1.89-2.894
				c-1.328-0.535-2.88-0.523-4.197,0.039c-1.11,0.48-1.801,1.662-1.821,2.851c-0.06,6.386,0.089,12.773,0.05,19.158
				c-0.039,6.916,0.089,13.827,0.057,20.744c0.159,3.9,1.037,7.789,2.664,11.343c2.881,6.15,8.017,11.219,14.215,13.994
				c5.22,2.222,11.093,3.122,16.691,1.982c6.854-1.198,13.142-5.082,17.369-10.593c3.991-5.12,5.963-11.635,6.033-18.086
				C85.93,59.573,85.487,56.725,84.66,53.989z M77.89,65.82c-0.649,4.556-2.877,8.867-6.213,12.039
				c-2.92,2.928-6.792,4.866-10.877,5.501c-4.71,0.78-9.694-0.168-13.785-2.637c-2.158-1.324-4.057-3.054-5.662-5.009
				c-5.661-6.973-6.001-17.743-0.752-25.034c1.691-2.241,3.679-4.303,6.088-5.777c2.545-1.603,5.467-2.568,8.451-2.915
				c4.979-0.582,10.204,0.661,14.274,3.624c3.047,2.286,5.579,5.326,7.077,8.844C77.95,58.025,78.531,62.001,77.89,65.82z"/>
			<path style="fill:#FFFFFF;" d="M45.914,56.498c-1.964,0.042-4.052,0.926-5.066,2.686c-0.665,1.183-1.07,2.579-0.848,3.94
				c0.27,1.497,0.91,3.006,2.145,3.954c1.671,1.281,4.041,1.687,5.979,0.774c1.951-0.763,3.122-2.743,3.401-4.751
				c0.214-1.501-0.24-3.064-1.098-4.297C49.425,57.345,47.643,56.578,45.914,56.498z"/>
		</g>
	</g>
</g>
<g>
</g>
<g>
</g>
<g>
</g>
<g>
</g>
<g>
</g>
<g>
</g>
<g>
</g>
<g>
</g>
<g>
</g>
<g>
</g>
<g>
</g>
<g>
</g>
<g>
</g>
<g>
</g>
<g>
</g>
</svg><svg height="112.198" viewBox="0 0 113 113" width="112.198" x="133" y="10">
<g>
	<circle style="fill:#04CC47;" cx="56.099" cy="56.099" r="56.098"/>
	<polygon id="da_1_" style="fill:#FFFFFF;" points="76.313,35.591 63.781,59.612 76.313,59.612 76.313,75.484 55.524,75.484 
		48.737,88.497 35.885,88.497 35.885,77.916 49.004,52.772 35.885,52.772 35.885,36.74 57.368,36.74 64.182,23.701 76.313,23.701 	
		"/>
</g>
<g>
</g>
<g>
</g>
<g>
</g>
<g>
</g>
<g>
</g>
<g>
</g>
<g>
</g>
<g>
</g>
<g>
</g>
<g>
</g>
<g>
</g>
<g>
</g>
<g>
</g>
<g>
</g>
<g>
</g>
</svg><svg height="112.198" viewBox="0 0 113 113" width="112.198" x="10" y="133">
<g>
	<circle style="fill:#CB2027;" cx="56.099" cy="56.1" r="56.098"/>
	<g>
		<path style="fill:#F1F2F2;" d="M60.627,75.122c-4.241-0.328-6.023-2.431-9.349-4.45c-1.828,9.591-4.062,18.785-10.679,23.588
			c-2.045-14.496,2.998-25.384,5.34-36.941c-3.992-6.72,0.48-20.246,8.9-16.913c10.363,4.098-8.972,24.987,4.008,27.596
			c13.551,2.724,19.083-23.513,10.679-32.047c-12.142-12.321-35.343-0.28-32.49,17.358c0.695,4.312,5.151,5.621,1.78,11.571
			c-7.771-1.721-10.089-7.85-9.791-16.021c0.481-13.375,12.018-22.74,23.59-24.036c14.635-1.638,28.371,5.374,30.267,19.14
			C85.015,59.504,76.275,76.33,60.627,75.122L60.627,75.122z"/>
	</g>
</g>
<g>
</g>
<g>
</g>
<g>
</g>
<g>
</g>
<g>
</g>
<g>
</g>
<g>
</g>
<g>
</g>
<g>
</g>
<g>
</g>
<g>
</g>
<g>
</g>
<g>
</g>
<g>
</g>
<g>
</g>
</svg><svg height="112.197" viewBox="0 0 113 113" width="112.197" x="133" y="133">
<g>
	<circle style="fill:#55ACEE;" cx="56.099" cy="56.098" r="56.098"/>
	<g>
		<path style="fill:#F1F2F2;" d="M90.461,40.316c-2.404,1.066-4.99,1.787-7.702,2.109c2.769-1.659,4.894-4.284,5.897-7.417
			c-2.591,1.537-5.462,2.652-8.515,3.253c-2.446-2.605-5.931-4.233-9.79-4.233c-7.404,0-13.409,6.005-13.409,13.409
			c0,1.051,0.119,2.074,0.349,3.056c-11.144-0.559-21.025-5.897-27.639-14.012c-1.154,1.98-1.816,4.285-1.816,6.742
			c0,4.651,2.369,8.757,5.965,11.161c-2.197-0.069-4.266-0.672-6.073-1.679c-0.001,0.057-0.001,0.114-0.001,0.17
			c0,6.497,4.624,11.916,10.757,13.147c-1.124,0.308-2.311,0.471-3.532,0.471c-0.866,0-1.705-0.083-2.523-0.239
			c1.706,5.326,6.657,9.203,12.526,9.312c-4.59,3.597-10.371,5.74-16.655,5.74c-1.08,0-2.15-0.063-3.197-0.188
			c5.931,3.806,12.981,6.025,20.553,6.025c24.664,0,38.152-20.432,38.152-38.153c0-0.581-0.013-1.16-0.039-1.734
			C86.391,45.366,88.664,43.005,90.461,40.316L90.461,40.316z"/>
	</g>
</g>
<g>
</g>
<g>
</g>
<g>
</g>
<g>
</g>
<g>
</g>
<g>
</g>
<g>
</g>
<g>
</g>
<g>
</g>
<g>
</g>
<g>
</g>
<g>
</g>
<g>
</g>
<g>
</g>
<g>
</g>
</svg><svg height="112.197" viewBox="0 0 113 113" width="112.197" x="255" y="10">
<g>
	<circle style="fill:#395976;" cx="56.099" cy="56.098" r="56.098"/>
	<g>
		<path style="fill:#F1F2F2;" d="M58.178,38.032V22.966h-9.725c-0.219,0.55-0.327,1.221-0.327,1.891
			c-0.102,0.327-0.222,0.564-0.222,0.89c-0.997,5.587-3.899,9.484-8.814,11.613c-1.459,0.673-2.798,0.775-4.242,0.673v12.146h7.146
			c0.116,17.092,0.116,25.903,0.116,26.351v1.013c0.897,7.457,4.796,11.926,11.717,13.606c2.785,0.772,5.794,1.116,8.814,1.116
			c3.9-0.12,7.696-0.789,11.493-2.007V75.964c-2.218,0.67-4.241,1.234-6.026,1.786c-3.456,1.01-6.358,0.341-8.713-1.891
			c-0.222-0.341-0.551-0.79-0.667-1.237c-0.329-1.784-0.538-3.678-0.538-5.461V50.178h15.497V38.032H58.178z"/>
	</g>
</g>
<g>
</g>
<g>
</g>
<g>
</g>
<g>
</g>
<g>
</g>
<g>
</g>
<g>
</g>
<g>
</g>
<g>
</g>
<g>
</g>
<g>
</g>
<g>
</g>
<g>
</g>
<g>
</g>
<g>
</g>
</svg><svg height="112.196" viewBox="0 0 113 113" width="112.196" x="255" y="133">
<g>
	<g>
		<circle id="XMLID_11_" style="fill:#4D76A1;" cx="56.098" cy="56.098" r="56.098"/>
	</g>
	<path style="fill-rule:evenodd;clip-rule:evenodd;fill:#FFFFFF;" d="M53.979,80.702h4.403c0,0,1.33-0.146,2.009-0.878
		c0.625-0.672,0.605-1.934,0.605-1.934s-0.086-5.908,2.656-6.778c2.703-0.857,6.174,5.71,9.853,8.235
		c2.782,1.911,4.896,1.492,4.896,1.492l9.837-0.137c0,0,5.146-0.317,2.706-4.363c-0.2-0.331-1.421-2.993-7.314-8.463
		c-6.168-5.725-5.342-4.799,2.088-14.702c4.525-6.031,6.334-9.713,5.769-11.29c-0.539-1.502-3.867-1.105-3.867-1.105l-11.076,0.069
		c0,0-0.821-0.112-1.43,0.252c-0.595,0.357-0.978,1.189-0.978,1.189s-1.753,4.667-4.091,8.636c-4.932,8.375-6.904,8.817-7.71,8.297
		c-1.875-1.212-1.407-4.869-1.407-7.467c0-8.116,1.231-11.5-2.397-12.376c-1.204-0.291-2.09-0.483-5.169-0.514
		c-3.952-0.041-7.297,0.012-9.191,0.94c-1.26,0.617-2.232,1.992-1.64,2.071c0.732,0.098,2.39,0.447,3.269,1.644
		c1.135,1.544,1.095,5.012,1.095,5.012s0.652,9.554-1.523,10.741c-1.493,0.814-3.541-0.848-7.938-8.446
		c-2.253-3.892-3.954-8.194-3.954-8.194s-0.328-0.804-0.913-1.234c-0.71-0.521-1.702-0.687-1.702-0.687l-10.525,0.069
		c0,0-1.58,0.044-2.16,0.731c-0.516,0.611-0.041,1.875-0.041,1.875s8.24,19.278,17.57,28.993
		C44.264,81.287,53.979,80.702,53.979,80.702L53.979,80.702z"/>
</g>
<g>
</g>
<g>
</g>
<g>
</g>
<g>
</g>
<g>
</g>
<g>
</g>
<g>
</g>
<g>
</g>
<g>
</g>
<g>
</g>
<g>
</g>
<g>
</g>
<g>
</g>
<g>
</g>
<g>
</g>
</svg><svg height="112.196" viewBox="0 0 113 113" width="112.196" x="10" y="255">
<g>
	<g>
		<circle id="XMLID_30_" style="fill:#DC4E41;" cx="56.098" cy="56.097" r="56.098"/>
	</g>
	<g>
		<path style="fill:#DC4E41;" d="M19.531,58.608c-0.199,9.652,6.449,18.863,15.594,21.867c8.614,2.894,19.205,0.729,24.937-6.648
			c4.185-5.169,5.136-12.06,4.683-18.498c-7.377-0.066-14.754-0.044-22.12-0.033c-0.012,2.628,0,5.246,0.011,7.874
			c4.417,0.122,8.835,0.066,13.252,0.155c-1.115,3.821-3.655,7.377-7.51,8.757c-7.443,3.28-16.94-1.005-19.282-8.813
			c-2.827-7.477,1.801-16.5,9.442-18.675c4.738-1.667,9.619,0.21,13.673,2.673c2.054-1.922,3.976-3.976,5.864-6.052
			c-4.606-3.854-10.525-6.217-16.61-5.698C29.526,35.659,19.078,46.681,19.531,58.608z"/>
		<path style="fill:#DC4E41;" d="M79.102,48.668c-0.022,2.198-0.045,4.407-0.056,6.604c-2.209,0.022-4.406,0.033-6.604,0.044
			c0,2.198,0,4.384,0,6.582c2.198,0.011,4.407,0.022,6.604,0.045c0.022,2.198,0.022,4.395,0.044,6.604c2.187,0,4.385-0.011,6.582,0
			c0.012-2.209,0.022-4.406,0.045-6.615c2.197-0.011,4.406-0.022,6.604-0.033c0-2.198,0-4.384,0-6.582
			c-2.197-0.011-4.406-0.022-6.604-0.044c-0.012-2.198-0.033-4.407-0.045-6.604C83.475,48.668,81.288,48.668,79.102,48.668z"/>
		<g>
			<path style="fill:#FFFFFF;" d="M19.531,58.608c-0.453-11.927,9.994-22.949,21.933-23.092c6.085-0.519,12.005,1.844,16.61,5.698
				c-1.889,2.077-3.811,4.13-5.864,6.052c-4.054-2.463-8.935-4.34-13.673-2.673c-7.642,2.176-12.27,11.199-9.442,18.675
				c2.342,7.808,11.839,12.093,19.282,8.813c3.854-1.38,6.395-4.936,7.51-8.757c-4.417-0.088-8.835-0.033-13.252-0.155
				c-0.011-2.628-0.022-5.246-0.011-7.874c7.366-0.011,14.743-0.033,22.12,0.033c0.453,6.439-0.497,13.33-4.683,18.498
				c-5.732,7.377-16.322,9.542-24.937,6.648C25.981,77.471,19.332,68.26,19.531,58.608z"/>
			<path style="fill:#FFFFFF;" d="M79.102,48.668c2.187,0,4.373,0,6.57,0c0.012,2.198,0.033,4.407,0.045,6.604
				c2.197,0.022,4.406,0.033,6.604,0.044c0,2.198,0,4.384,0,6.582c-2.197,0.011-4.406,0.022-6.604,0.033
				c-0.022,2.209-0.033,4.406-0.045,6.615c-2.197-0.011-4.396,0-6.582,0c-0.021-2.209-0.021-4.406-0.044-6.604
				c-2.197-0.023-4.406-0.033-6.604-0.045c0-2.198,0-4.384,0-6.582c2.198-0.011,4.396-0.022,6.604-0.044
				C79.057,53.075,79.079,50.866,79.102,48.668z"/>
		</g>
	</g>
</g>
<g>
</g>
<g>
</g>
<g>
</g>
<g>
</g>
<g>
</g>
<g>
</g>
<g>
</g>
<g>
</g>
<g>
</g>
<g>
</g>
<g>
</g>
<g>
</g>
<g>
</g>
<g>
</g>
<g>
</g>
</svg><svg height="112.196" viewBox="0 0 113 113" width="112.196" x="133" y="255">
<g>
	<circle id="XMLID_115_" style="fill:#6A453B;" cx="56.098" cy="56.097" r="56.098"/>
	<path style="fill:#FFFFFF;" d="M79.124,22.506h-46.05c-5.83,0-10.56,4.73-10.56,10.57v46.05c0,5.83,4.73,10.56,10.56,10.56h46.05
		c5.83,0,10.56-4.73,10.56-10.56v-46.05C89.684,27.236,84.954,22.506,79.124,22.506z M71.983,30.276l8.44-0.02h0.02
		c0.81-0.01,1.47,0.65,1.47,1.45v8.47c0,0.81-0.65,1.46-1.46,1.46l-8.43,0.03c-0.81,0-1.46-0.65-1.46-1.45l-0.03-8.47
		C70.523,30.936,71.173,30.286,71.983,30.276z M45.804,50.326c0.22-0.38,0.45-0.76,0.71-1.12c2.15-2.98,5.64-4.93,9.58-4.93
		c3.95,0,7.44,1.95,9.59,4.93c0.26,0.36,0.49,0.74,0.71,1.13c0.96,1.7,1.53,3.67,1.53,5.76c0,6.52-5.31,11.82-11.83,11.82
		c-6.52,0-11.82-5.3-11.82-11.82C44.273,54.006,44.834,52.036,45.804,50.326z M83.144,76.706c0,3.55-2.89,6.44-6.44,6.44h-41.21
		c-3.55,0-6.44-2.89-6.44-6.44v-27.5h10.03c-0.25,0.61-0.47,1.25-0.65,1.89c-0.46,1.59-0.7,3.27-0.7,5
		c0,10.13,8.24,18.37,18.36,18.37c10.13,0,18.37-8.24,18.37-18.37c0-1.73-0.25-3.41-0.7-5c-0.19-0.64-0.4-1.28-0.65-1.89h10.03
		V76.706z"/>
</g>
<g>
</g>
<g>
</g>
<g>
</g>
<g>
</g>
<g>
</g>
<g>
</g>
<g>
</g>
<g>
</g>
<g>
</g>
<g>
</g>
<g>
</g>
<g>
</g>
<g>
</g>
<g>
</g>
<g>
</g>
</svg><svg height="112.196" viewBox="0 0 113 113" width="112.196" x="255" y="255">
<g>
	<g>
		<circle style="fill:#4176FA;" cx="56.098" cy="56.098" r="56.098"/>
	</g>
	<g>
		<path style="fill:#F1F2F2;" d="M76.209,46.341c-16.203,0-16.224,16.142-16.224,16.225c0,0-1.11,16.162,16.224,16.162
			c0,0,14.456,0.822,14.456-11.248h-7.423c0,0,0.246,4.544-6.786,4.544c0,0-7.423,0.494-7.423-7.341h21.879
			C90.912,64.683,93.318,46.341,76.209,46.341z M68.95,59.028c0,0,0.905-6.498,7.424-6.498c6.539,0,6.436,6.498,6.436,6.498H68.95z
			 M50.404,54.875c0,0,6.436-0.473,6.436-8.04c0-7.546-5.264-11.248-11.947-11.248H22.91v42.256h21.981
			c0,0,13.428,0.412,13.428-12.481C58.32,65.362,58.896,54.875,50.404,54.875z M32.596,43.092h12.296c0,0,2.982,0,2.982,4.4
			s-1.748,5.038-3.743,5.038H32.596V43.092z M44.276,70.338h-11.68v-11.31h12.296c0,0,4.463-0.041,4.442,5.819
			C49.334,69.783,46.024,70.297,44.276,70.338z M67.12,38.075v5.203h17.438v-5.203H67.12z"/>
	</g>
</g>
<g>
</g>
<g>
</g>
<g>
</g>
<g>
</g>
<g>
</g>
<g>
</g>
<g>
</g>
<g>
</g>
<g>
</g>
<g>
</g>
<g>
</g>
<g>
</g>
<g>
</g>
<g>
</g>
<g>
</g>
</svg><svg height="112.196" viewBox="0 0 113 113" width="112.196" x="377" y="10">
<g>
	<circle style="fill:#007AB9;" cx="56.098" cy="56.097" r="56.098"/>
	<g>
		<path style="fill:#F1F2F2;" d="M89.616,60.611v23.128H76.207V62.161c0-5.418-1.936-9.118-6.791-9.118
			c-3.705,0-5.906,2.491-6.878,4.903c-0.353,0.862-0.444,2.059-0.444,3.268v22.524H48.684c0,0,0.18-36.546,0-40.329h13.411v5.715
			c-0.027,0.045-0.065,0.089-0.089,0.132h0.089v-0.132c1.782-2.742,4.96-6.662,12.085-6.662
			C83.002,42.462,89.616,48.226,89.616,60.611L89.616,60.611z M34.656,23.969c-4.587,0-7.588,3.011-7.588,6.967
			c0,3.872,2.914,6.97,7.412,6.97h0.087c4.677,0,7.585-3.098,7.585-6.97C42.063,26.98,39.244,23.969,34.656,23.969L34.656,23.969z
			 M27.865,83.739H41.27V43.409H27.865V83.739z"/>
	</g>
</g>
<g>
</g>
<g>
</g>
<g>
</g>
<g>
</g>
<g>
</g>
<g>
</g>
<g>
</g>
<g>
</g>
<g>
</g>
<g>
</g>
<g>
</g>
<g>
</g>
<g>
</g>
<g>
</g>
<g>
</g>
</svg><svg height="112.196" viewBox="0 0 113 113" width="112.196" x="377" y="133">
<g>
	<circle style="fill:#F26798;" cx="56.098" cy="56.098" r="56.098"/>
	<g>
		<path style="fill:#F1F2F2;" d="M56.097,20.472c-19.669,0-35.671,15.983-35.671,35.627c0,19.644,16.002,35.626,35.671,35.626
			c19.67,0,35.673-15.981,35.673-35.626C91.77,36.455,75.767,20.472,56.097,20.472L56.097,20.472z M79.57,37.287
			c4.069,5.043,6.542,11.412,6.656,18.352c-1.354-0.278-7.088-1.347-13.94-1.347c-2.211,0-4.538,0.111-6.871,0.399
			c-0.197-0.479-0.394-0.956-0.601-1.438c-0.605-1.423-1.257-2.835-1.932-4.226C73.428,44.682,78.515,38.652,79.57,37.287
			L79.57,37.287z M56.097,26.049c7.601,0,14.549,2.824,19.856,7.475c-0.84,1.146-5.396,6.841-15.565,10.683
			c-4.707-8.604-9.859-15.729-11.085-17.383C51.488,26.318,53.762,26.049,56.097,26.049L56.097,26.049z M43.152,28.969
			c1.039,1.431,6.199,8.632,11.027,17.167c-12.957,3.406-24.463,3.628-27.24,3.628h-0.295C28.639,40.57,34.851,32.93,43.152,28.969
			L43.152,28.969z M25.96,56.146c0-0.248,0.004-0.496,0.012-0.743c0.18,0.002,0.446,0.002,0.791,0.002
			c3.74,0,16.722-0.309,30.1-4.279c0.812,1.588,1.585,3.2,2.304,4.811c-0.338,0.097-0.671,0.194-1.002,0.302
			c-15.063,4.865-23.342,17.744-24.616,19.849C28.829,70.77,25.96,63.788,25.96,56.146L25.96,56.146z M56.097,86.241
			c-6.912,0-13.291-2.341-18.381-6.266c0.861-1.688,7.11-12.939,23.617-18.684c0.01-0.004,0.021-0.008,0.033-0.011
			c4.139,10.776,5.892,19.82,6.373,22.623C64.157,85.409,60.223,86.241,56.097,86.241L56.097,86.241z M73.167,80.936
			c-0.404-2.319-2.028-10.795-5.776-21.133c2.102-0.327,4.147-0.456,6.065-0.456c6.299,0,11.226,1.379,12.371,1.729
			C84.466,69.285,79.766,76.389,73.167,80.936L73.167,80.936z"/>
	</g>
</g>
<g>
</g>
<g>
</g>
<g>
</g>
<g>
</g>
<g>
</g>
<g>
</g>
<g>
</g>
<g>
</g>
<g>
</g>
<g>
</g>
<g>
</g>
<g>
</g>
<g>
</g>
<g>
</g>
<g>
</g>
</svg><svg height="112.196" viewBox="0 0 113 113" width="112.196" x="377" y="255">
<g>
	<circle style="fill:#FF6A22;" cx="56.098" cy="56.098" r="56.098"/>
	<g>
		<path style="fill:#F1F2F2;" d="M16.707,68.833c-0.027,0.182-0.157,0.312-0.326,0.312c-0.169,0-0.299-0.13-0.325-0.316
			l-0.593-4.438l0.593-4.512c0.025-0.188,0.155-0.318,0.325-0.318c0.168,0,0.298,0.13,0.326,0.318l0.706,4.517L16.707,68.833z
			 M19.728,71.529c-0.028,0.193-0.168,0.328-0.341,0.328c-0.168,0-0.315-0.135-0.338-0.328l-0.798-7.139l0.798-7.299
			c0.024-0.188,0.17-0.328,0.338-0.328c0.173,0,0.313,0.137,0.341,0.328l0.908,7.299L19.728,71.529z M22.988,72.738
			c-0.023,0.232-0.197,0.397-0.406,0.397c-0.216,0-0.387-0.165-0.408-0.397l-0.757-8.342l0.757-8.659
			c0.019-0.235,0.192-0.403,0.408-0.403c0.209,0,0.382,0.168,0.406,0.403l0.859,8.659L22.988,72.738z M26.28,73.003
			c-0.024,0.266-0.232,0.467-0.479,0.467c-0.253,0-0.46-0.201-0.481-0.467l-0.715-8.607l0.715-8.897
			c0.021-0.268,0.228-0.469,0.481-0.469c0.247,0,0.455,0.201,0.479,0.469l0.811,8.897L26.28,73.003z M29.59,73.072
			c-0.017,0.309-0.258,0.538-0.543,0.538c-0.294,0-0.527-0.229-0.547-0.538l-0.676-8.677l0.676-8.254
			c0.021-0.307,0.253-0.536,0.547-0.536c0.29,0,0.526,0.229,0.543,0.532l0.766,8.258L29.59,73.072z M32.932,73.077v-0.005
			c-0.02,0.342-0.291,0.612-0.617,0.612c-0.327,0-0.598-0.271-0.617-0.607l-0.631-8.677l0.631-13.429
			c0.019-0.342,0.29-0.612,0.617-0.612c0.327,0,0.598,0.271,0.617,0.607l0.715,13.434L32.932,73.077z M36.249,73.072v-0.005
			c-0.02,0.378-0.319,0.679-0.689,0.679c-0.363,0-0.663-0.301-0.681-0.679l-0.596-8.621l0.596-16.501
			c0.018-0.378,0.318-0.677,0.681-0.677c0.37,0,0.669,0.299,0.689,0.677l0.671,16.501L36.249,73.072z M39.69,72.939v-0.005
			c-0.015,0.421-0.346,0.748-0.753,0.748c-0.407,0-0.738-0.327-0.753-0.743l-0.553-8.533c0,0,0.553-17.876,0.553-17.881
			c0.016-0.416,0.346-0.749,0.753-0.749c0.407,0,0.739,0.333,0.753,0.749l0.625,17.881L39.69,72.939z M43.111,72.882
			c-0.016,0.458-0.375,0.817-0.822,0.817c-0.448,0-0.807-0.359-0.823-0.813l-0.516-8.482l0.516-18.478
			c0.016-0.46,0.375-0.818,0.823-0.818c0.447,0,0.807,0.358,0.822,0.818l0.573,18.478L43.111,72.882z M46.554,72.807v-0.005
			c-0.016,0.495-0.403,0.888-0.894,0.888c-0.484,0-0.879-0.393-0.888-0.883l-0.474-8.401L44.767,46.4
			c0.014-0.502,0.408-0.89,0.893-0.89c0.491,0,0.878,0.388,0.894,0.89l0.532,18.006L46.554,72.807z M50.025,72.757V72.75
			c-0.008,0.539-0.434,0.954-0.96,0.954c-0.53,0-0.95-0.415-0.966-0.947l-0.428-8.352L48.1,47.058
			c0.016-0.538,0.436-0.959,0.966-0.959c0.526,0,0.952,0.421,0.96,0.959l0.485,17.352L50.025,72.757z M53.566,71.876l-0.043,0.818
			c-0.005,0.285-0.125,0.543-0.308,0.729c-0.188,0.183-0.446,0.3-0.719,0.3c-0.318,0-0.598-0.146-0.79-0.376
			c-0.142-0.167-0.23-0.383-0.24-0.61c-0.003-0.01-0.003-0.023-0.003-0.037c0,0-0.395-8.286-0.395-8.3l0.39-20.443l0.005-0.196
			c0.003-0.358,0.193-0.677,0.477-0.86c0.159-0.106,0.347-0.168,0.557-0.168c0.206,0,0.401,0.064,0.564,0.177
			c0.277,0.185,0.458,0.496,0.463,0.852l0.434,20.648L53.566,71.876z M57.007,72.587v-0.01c-0.007,0.604-0.502,1.096-1.1,1.096
			c-0.6,0-1.094-0.492-1.1-1.091l-0.227-4.03l-0.223-4.138l0.45-22.406v-0.113c0.001-0.34,0.161-0.644,0.408-0.849
			c0.189-0.155,0.432-0.249,0.692-0.249c0.207,0,0.399,0.057,0.563,0.153c0.313,0.196,0.532,0.543,0.542,0.94l0.487,22.523
			L57.007,72.587z M86.74,73.695c0,0-27.683,0-27.712,0c-0.598-0.061-1.071-0.537-1.081-1.15V40.821
			c0.01-0.584,0.211-0.885,0.963-1.174c1.941-0.752,4.139-1.196,6.398-1.196c9.215,0,16.766,7.069,17.567,16.074
			c1.186-0.495,2.496-0.777,3.865-0.777c5.518,0,9.992,4.476,9.992,9.998C96.732,69.267,92.258,73.695,86.74,73.695L86.74,73.695z"/>
	</g>
</g>
<g>
</g>
<g>
</g>
<g>
</g>
<g>
</g>
<g>
</g>
<g>
</g>
<g>
</g>
<g>
</g>
<g>
</g>
<g>
</g>
<g>
</g>
<g>
</g>
<g>
</g>
<g>
</g>
<g>
</g>
</svg><svg height="112.196" viewBox="0 0 113 113" width="112.196" x="10" y="377">
<g>
	<circle style="fill:#F3923C;" cx="56.098" cy="56.098" r="56.098"/>
	<g>
		<path style="fill:#F1F2F2;" d="M46.916,79.438c-1.917-4.367-2.982-9.053-3.089-13.739c-3.088,4.793-5.432,9.692-7.029,13.207
			c-0.106,0.213-0.106,0.32-0.213,0.533c-0.532,1.385-1.065,2.45-1.385,3.408c-0.426,1.065,0.106,2.343,1.278,2.769
			c0.852,0.32,2.023,0.746,3.408,1.278C40.1,87,40.206,87,40.419,87.106c3.729,1.278,8.84,2.663,14.379,3.621
			C51.496,87.532,48.833,83.698,46.916,79.438"/>
		<path style="fill:#F1F2F2;" d="M54.371,44.397c-10.863-22.259-35.146-21.514-38.98-11.502
			c-2.982,7.668,9.905,25.881,39.514,12.674l0,0C54.798,45.463,54.479,44.611,54.371,44.397"/>
		<path style="fill:#F1F2F2;" d="M59.484,42.907c-6.07-15.018,4.58-23.645,10.331-21.408c4.367,1.704,6.71,14.591-10.011,22.046l0,0
			C59.804,43.439,59.59,43.013,59.484,42.907"/>
		<path style="fill:#F1F2F2;" d="M90.583,59.841c-2.556-5.645-7.136-9.798-12.567-11.715c-0.532-0.213-1.064-0.32-1.704-0.32
			c-2.769,0-5.538,2.343-5.751,5.219c-0.426,4.899,0.532,9.799,2.662,14.591c2.131,4.687,5.112,8.627,8.84,11.609
			c0.959,0.746,2.237,1.065,3.408,1.065c2.237,0,4.367-1.171,5.219-3.195C93.033,71.876,93.14,65.592,90.583,59.841"/>
		<path style="fill:#F1F2F2;" d="M77.909,84.87c-4.687-3.621-8.414-8.413-10.97-14.271c-2.663-5.964-3.728-12.035-3.195-17.999
			c0.106-1.704,0.639-3.302,1.385-4.686c-0.106,0-0.319,0.106-0.427,0.106l0,0c-0.213,0.106-0.532,0.106-0.745,0.213
			c-1.598,0.426-3.195,1.171-4.58,1.917c-0.745,0.426-1.384,0.852-2.13,1.278c-3.621,2.449-6.603,6.709-7.029,11.183
			c-0.426,4.792,0.426,9.692,2.449,14.378c2.024,4.58,5.006,8.308,8.628,11.183c2.236,1.811,6.177,2.876,9.479,2.876
			c3.621,0,7.455-1.385,10.544-3.302c0,0,0.106,0,0.106-0.106c0.213-0.107,0.426-0.32,0.639-0.426C82.17,87.106,82.277,87,82.383,87
			C80.679,86.574,79.188,85.828,77.909,84.87"/>
	</g>
</g>
<g>
</g>
<g>
</g>
<g>
</g>
<g>
</g>
<g>
</g>
<g>
</g>
<g>
</g>
<g>
</g>
<g>
</g>
<g>
</g>
<g>
</g>
<g>
</g>
<g>
</g>
<g>
</g>
<g>
</g>
</svg><svg height="112.196" viewBox="0 0 113 113" width="112.196" x="133" y="377">
<g>
	<circle style="fill:#3B5998;" cx="56.098" cy="56.098" r="56.098"/>
	<path style="fill:#FFFFFF;" d="M70.201,58.294h-10.01v36.672H45.025V58.294h-7.213V45.406h7.213v-8.34
		c0-5.964,2.833-15.303,15.301-15.303L71.56,21.81v12.51h-8.151c-1.337,0-3.217,0.668-3.217,3.513v7.585h11.334L70.201,58.294z"/>
</g>
<g>
</g>
<g>
</g>
<g>
</g>
<g>
</g>
<g>
</g>
<g>
</g>
<g>
</g>
<g>
</g>
<g>
</g>
<g>
</g>
<g>
</g>
<g>
</g>
<g>
</g>
<g>
</g>
<g>
</g>
</svg><svg height="112.195" viewBox="0 0 113 113" width="112.195" x="255" y="377">
<g>
	<path style="fill:#FF0084;" d="M56.101,112.192c30.976,0,56.095-25.115,56.095-56.096c0-30.978-25.119-56.093-56.095-56.093
		C25.116,0.003,0,25.119,0,56.096C0,87.077,25.116,112.192,56.101,112.192"/>
	<g>
		<path style="fill:#F1F2F2;" d="M84.246,56.096c0,6.849-5.547,12.401-12.396,12.401c-6.859,0-12.406-5.553-12.406-12.401
			c0-6.847,5.547-12.4,12.406-12.4C78.699,43.696,84.246,49.25,84.246,56.096z"/>
		<path style="fill:#F1F2F2;" d="M52.749,56.096c0,6.849-5.547,12.401-12.406,12.401c-6.847,0-12.394-5.553-12.394-12.401
			c0-6.847,5.547-12.4,12.394-12.4C47.202,43.696,52.749,49.25,52.749,56.096z"/>
	</g>
</g>
<g>
</g>
<g>
</g>
<g>
</g>
<g>
</g>
<g>
</g>
<g>
</g>
<g>
</g>
<g>
</g>
<g>
</g>
<g>
</g>
<g>
</g>
<g>
</g>
<g>
</g>
<g>
</g>
<g>
</g>
</svg><svg height="112.195" viewBox="0 0 113 113" width="112.195" x="377" y="377">
<g>
	<path id="XMLID_59_" style="fill:#D31F27;" d="M112.195,56.097c0,30.983-25.114,56.099-56.097,56.099
		C25.115,112.195,0,87.08,0,56.097C0,25.117,25.115,0,56.099,0C87.081,0,112.195,25.117,112.195,56.097z"/>
	<g id="lastfm">
		<g>
			<path style="fill:#FFFFFF;" d="M80.487,52.141c-6.203-1.849-8.412-2.874-8.412-4.922c0-3.416,4.937-4.702,5.497-4.79
				c3.139-0.465,7.072,1.173,8.34,4.99l8.44-2.553c-2.65-8.385-10.487-12.099-18.099-10.975
				c-7.788,1.146-12.782,6.786-12.782,13.327c0,8.8,8.244,11.332,14.43,13.181c6.509,1.944,8.401,2.637,8.401,5.023
				c0,2.016-1.196,3.895-4.374,4.735c-6.32,1.664-14.586-0.672-16.887-4.523c-1.351-2.261-2.733-5.203-4.001-8.53
				c-3.766-9.866-8.926-23.371-23.764-23.371c-7.731,0-21.851,3.743-21.851,24.868c0,8.744,7.481,19.613,21.578,19.613
				c11.829,0,13.888-4.32,14.358-5.085l-3.861-7.555c-0.098,0.138-3.692,4.936-10.497,4.936c-11.107,0-12.735-11.776-12.735-11.909
				c0-10.967,4.687-16.238,13.008-16.238c8.094,0,11.382,7.04,15.48,17.759c1.397,3.683,2.922,6.966,4.65,9.865
				c3.657,6.116,11.55,8.091,19.473,8.091c2.418,0,5.2,0.137,7.351-0.432c7.093-1.878,10.905-6.178,10.905-12.224
				C95.137,56.218,86.852,54.044,80.487,52.141z"/>
		</g>
	</g>
</g>
<g>
</g>
<g>
</g>
<g>
</g>
<g>
</g>
<g>
</g>
<g>
</g>
<g>
</g>
<g>
</g>
<g>
</g>
<g>
</g>
<g>
</g>
<g>
</g>
<g>
</g>
<g>
</g>
<g>
</g>
</svg></svg>